<svg xmlns="http://www.w3.org/2000/svg" width="1313" height="780" style="cursor: move;"><g transform="translate(277.127612992791,94.58579731030073) scale(0.8044083709419159)"><path class="link" marker-end="" d="M496.5,360, 676.5,240" style="stroke-width: 0.69px; stroke-opacity: 1; stroke: rgb(175, 190, 255);"></path><path class="link" marker-end="" d="M496.5,360, 676.5,280" style="stroke-width: 0.69px; stroke-opacity: 1; stroke: rgb(255, 211, 211);"></path><path class="link" marker-end="" d="M496.5,360, 676.5,320" style="stroke-width: 0.69px; stroke-opacity: 1; stroke: rgb(255, 234, 234);"></path><path class="link" marker-end="" d="M496.5,360, 676.5,360" style="stroke-width: 0.69px; stroke-opacity: 1; stroke: rgb(255, 52, 52);"></path><path class="link" marker-end="" d="M496.5,360, 676.5,400" style="stroke-width: 0.69px; stroke-opacity: 1; stroke: rgb(255, 184, 184);"></path><path class="link" marker-end="" d="M496.5,360, 676.5,440" style="stroke-width: 0.69px; stroke-opacity: 1; stroke: rgb(202, 212, 255);"></path><path class="link" marker-end="" d="M496.5,360, 676.5,480" style="stroke-width: 0.69px; stroke-opacity: 1; stroke: rgb(255, 254, 254);"></path><path class="link" marker-end="" d="M496.5,360, 676.5,520" style="stroke-width: 0.69px; stroke-opacity: 1; stroke: rgb(30, 72, 255);"></path><path class="link" marker-end="" d="M496.5,400, 676.5,240" style="stroke-width: 0.69px; stroke-opacity: 1; stroke: rgb(66, 102, 255);"></path><path class="link" marker-end="" d="M496.5,400, 676.5,280" style="stroke-width: 0.69px; stroke-opacity: 1; stroke: rgb(53, 91, 255);"></path><path class="link" marker-end="" d="M496.5,400, 676.5,320" style="stroke-width: 0.69px; stroke-opacity: 1; stroke: rgb(255, 8, 8);"></path><path class="link" marker-end="" d="M496.5,400, 676.5,360" style="stroke-width: 0.69px; stroke-opacity: 1; stroke: rgb(255, 198, 198);"></path><path class="link" marker-end="" d="M496.5,400, 676.5,400" style="stroke-width: 0.69px; stroke-opacity: 1; stroke: rgb(255, 61, 61);"></path><path class="link" marker-end="" d="M496.5,400, 676.5,440" style="stroke-width: 0.69px; stroke-opacity: 1; stroke: rgb(192, 204, 255);"></path><path class="link" marker-end="" d="M496.5,400, 676.5,480" style="stroke-width: 0.69px; stroke-opacity: 1; stroke: rgb(155, 174, 255);"></path><path class="link" marker-end="" d="M496.5,400, 676.5,520" style="stroke-width: 0.69px; stroke-opacity: 1; stroke: rgb(193, 205, 255);"></path><path class="link" marker-end="" d="M676.5,240, 856.5,160" style="stroke-width: 0.69px; stroke-opacity: 1; stroke: rgb(255, 205, 205);"></path><path class="link" marker-end="" d="M676.5,240, 856.5,200" style="stroke-width: 0.69px; stroke-opacity: 1; stroke: rgb(255, 232, 232);"></path><path class="link" marker-end="" d="M676.5,280, 856.5,160" style="stroke-width: 0.69px; stroke-opacity: 1; stroke: rgb(255, 114, 114);"></path><path class="link" marker-end="" d="M676.5,280, 856.5,200" style="stroke-width: 0.69px; stroke-opacity: 1; stroke: rgb(255, 219, 219);"></path><path class="link" marker-end="" d="M676.5,320, 856.5,160" style="stroke-width: 0.69px; stroke-opacity: 1; stroke: rgb(255, 77, 77);"></path><path class="link" marker-end="" d="M676.5,320, 856.5,200" style="stroke-width: 0.69px; stroke-opacity: 1; stroke: rgb(241, 244, 255);"></path><path class="link" marker-end="" d="M676.5,360, 856.5,160" style="stroke-width: 0.69px; stroke-opacity: 1; stroke: rgb(117, 143, 255);"></path><path class="link" marker-end="" d="M676.5,360, 856.5,200" style="stroke-width: 0.69px; stroke-opacity: 1; stroke: rgb(255, 166, 166);"></path><path class="link" marker-end="" d="M676.5,400, 856.5,160" style="stroke-width: 0.69px; stroke-opacity: 1; stroke: rgb(191, 203, 255);"></path><path class="link" marker-end="" d="M676.5,400, 856.5,200" style="stroke-width: 0.69px; stroke-opacity: 1; stroke: rgb(166, 183, 255);"></path><path class="link" marker-end="" d="M676.5,440, 856.5,160" style="stroke-width: 0.69px; stroke-opacity: 1; stroke: rgb(228, 233, 255);"></path><path class="link" marker-end="" d="M676.5,440, 856.5,200" style="stroke-width: 0.69px; stroke-opacity: 1; stroke: rgb(250, 251, 255);"></path><path class="link" marker-end="" d="M676.5,480, 856.5,160" style="stroke-width: 0.69px; stroke-opacity: 1; stroke: rgb(70, 105, 255);"></path><path class="link" marker-end="" d="M676.5,480, 856.5,200" style="stroke-width: 0.69px; stroke-opacity: 1; stroke: rgb(214, 222, 255);"></path><path class="link" marker-end="" d="M676.5,520, 856.5,160" style="stroke-width: 0.69px; stroke-opacity: 1; stroke: rgb(255, 89, 89);"></path><path class="link" marker-end="" d="M676.5,520, 856.5,200" style="stroke-width: 0.69px; stroke-opacity: 1; stroke: rgb(239, 242, 255);"></path><path class="link" marker-end="" d="M676.5,240, 856.5,240" style="stroke-width: 0.69px; stroke-opacity: 1; stroke: rgb(255, 171, 171);"></path><path class="link" marker-end="" d="M676.5,240, 856.5,280" style="stroke-width: 0.69px; stroke-opacity: 1; stroke: rgb(160, 178, 255);"></path><path class="link" marker-end="" d="M676.5,240, 856.5,320" style="stroke-width: 0.69px; stroke-opacity: 1; stroke: rgb(255, 53, 53);"></path><path class="link" marker-end="" d="M676.5,240, 856.5,360" style="stroke-width: 0.69px; stroke-opacity: 1; stroke: rgb(42, 82, 255);"></path><path class="link" marker-end="" d="M676.5,240, 856.5,400" style="stroke-width: 0.69px; stroke-opacity: 1; stroke: rgb(58, 95, 255);"></path><path class="link" marker-end="" d="M676.5,240, 856.5,440" style="stroke-width: 0.69px; stroke-opacity: 1; stroke: rgb(255, 79, 79);"></path><path class="link" marker-end="" d="M676.5,240, 856.5,480" style="stroke-width: 0.69px; stroke-opacity: 1; stroke: rgb(255, 161, 161);"></path><path class="link" marker-end="" d="M676.5,240, 856.5,520" style="stroke-width: 0.69px; stroke-opacity: 1; stroke: rgb(255, 93, 93);"></path><path class="link" marker-end="" d="M676.5,240, 856.5,560" style="stroke-width: 0.69px; stroke-opacity: 1; stroke: rgb(255, 19, 19);"></path><path class="link" marker-end="" d="M676.5,240, 856.5,600" style="stroke-width: 0.69px; stroke-opacity: 1; stroke: rgb(255, 124, 124);"></path><path class="link" marker-end="" d="M676.5,280, 856.5,240" style="stroke-width: 0.69px; stroke-opacity: 1; stroke: rgb(228, 233, 255);"></path><path class="link" marker-end="" d="M676.5,280, 856.5,280" style="stroke-width: 0.69px; stroke-opacity: 1; stroke: rgb(204, 214, 255);"></path><path class="link" marker-end="" d="M676.5,280, 856.5,320" style="stroke-width: 0.69px; stroke-opacity: 1; stroke: rgb(255, 154, 154);"></path><path class="link" marker-end="" d="M676.5,280, 856.5,360" style="stroke-width: 0.69px; stroke-opacity: 1; stroke: rgb(13, 58, 255);"></path><path class="link" marker-end="" d="M676.5,280, 856.5,400" style="stroke-width: 0.69px; stroke-opacity: 1; stroke: rgb(215, 222, 255);"></path><path class="link" marker-end="" d="M676.5,280, 856.5,440" style="stroke-width: 0.69px; stroke-opacity: 1; stroke: rgb(53, 90, 255);"></path><path class="link" marker-end="" d="M676.5,280, 856.5,480" style="stroke-width: 0.69px; stroke-opacity: 1; stroke: rgb(33, 74, 255);"></path><path class="link" marker-end="" d="M676.5,280, 856.5,520" style="stroke-width: 0.69px; stroke-opacity: 1; stroke: rgb(255, 76, 76);"></path><path class="link" marker-end="" d="M676.5,280, 856.5,560" style="stroke-width: 0.69px; stroke-opacity: 1; stroke: rgb(255, 252, 252);"></path><path class="link" marker-end="" d="M676.5,280, 856.5,600" style="stroke-width: 0.69px; stroke-opacity: 1; stroke: rgb(255, 185, 185);"></path><path class="link" marker-end="" d="M676.5,320, 856.5,240" style="stroke-width: 0.69px; stroke-opacity: 1; stroke: rgb(255, 207, 207);"></path><path class="link" marker-end="" d="M676.5,320, 856.5,280" style="stroke-width: 0.69px; stroke-opacity: 1; stroke: rgb(255, 221, 221);"></path><path class="link" marker-end="" d="M676.5,320, 856.5,320" style="stroke-width: 0.69px; stroke-opacity: 1; stroke: rgb(165, 182, 255);"></path><path class="link" marker-end="" d="M676.5,320, 856.5,360" style="stroke-width: 0.69px; stroke-opacity: 1; stroke: rgb(255, 88, 88);"></path><path class="link" marker-end="" d="M676.5,320, 856.5,400" style="stroke-width: 0.69px; stroke-opacity: 1; stroke: rgb(255, 245, 245);"></path><path class="link" marker-end="" d="M676.5,320, 856.5,440" style="stroke-width: 0.69px; stroke-opacity: 1; stroke: rgb(255, 156, 156);"></path><path class="link" marker-end="" d="M676.5,320, 856.5,480" style="stroke-width: 0.69px; stroke-opacity: 1; stroke: rgb(240, 243, 255);"></path><path class="link" marker-end="" d="M676.5,320, 856.5,520" style="stroke-width: 0.69px; stroke-opacity: 1; stroke: rgb(5, 52, 255);"></path><path class="link" marker-end="" d="M676.5,320, 856.5,560" style="stroke-width: 0.69px; stroke-opacity: 1; stroke: rgb(23, 67, 255);"></path><path class="link" marker-end="" d="M676.5,320, 856.5,600" style="stroke-width: 0.69px; stroke-opacity: 1; stroke: rgb(255, 157, 157);"></path><path class="link" marker-end="" d="M676.5,360, 856.5,240" style="stroke-width: 0.69px; stroke-opacity: 1; stroke: rgb(202, 212, 255);"></path><path class="link" marker-end="" d="M676.5,360, 856.5,280" style="stroke-width: 0.69px; stroke-opacity: 1; stroke: rgb(5, 52, 255);"></path><path class="link" marker-end="" d="M676.5,360, 856.5,320" style="stroke-width: 0.69px; stroke-opacity: 1; stroke: rgb(10, 56, 255);"></path><path class="link" marker-end="" d="M676.5,360, 856.5,360" style="stroke-width: 0.69px; stroke-opacity: 1; stroke: rgb(26, 69, 255);"></path><path class="link" marker-end="" d="M676.5,360, 856.5,400" style="stroke-width: 0.69px; stroke-opacity: 1; stroke: rgb(97, 127, 255);"></path><path class="link" marker-end="" d="M676.5,360, 856.5,440" style="stroke-width: 0.69px; stroke-opacity: 1; stroke: rgb(136, 158, 255);"></path><path class="link" marker-end="" d="M676.5,360, 856.5,480" style="stroke-width: 0.69px; stroke-opacity: 1; stroke: rgb(115, 141, 255);"></path><path class="link" marker-end="" d="M676.5,360, 856.5,520" style="stroke-width: 0.69px; stroke-opacity: 1; stroke: rgb(228, 233, 255);"></path><path class="link" marker-end="" d="M676.5,360, 856.5,560" style="stroke-width: 0.69px; stroke-opacity: 1; stroke: rgb(130, 153, 255);"></path><path class="link" marker-end="" d="M676.5,360, 856.5,600" style="stroke-width: 0.69px; stroke-opacity: 1; stroke: rgb(255, 183, 183);"></path><path class="link" marker-end="" d="M676.5,400, 856.5,240" style="stroke-width: 0.69px; stroke-opacity: 1; stroke: rgb(255, 207, 207);"></path><path class="link" marker-end="" d="M676.5,400, 856.5,280" style="stroke-width: 0.69px; stroke-opacity: 1; stroke: rgb(255, 169, 169);"></path><path class="link" marker-end="" d="M676.5,400, 856.5,320" style="stroke-width: 0.69px; stroke-opacity: 1; stroke: rgb(53, 91, 255);"></path><path class="link" marker-end="" d="M676.5,400, 856.5,360" style="stroke-width: 0.69px; stroke-opacity: 1; stroke: rgb(255, 97, 97);"></path><path class="link" marker-end="" d="M676.5,400, 856.5,400" style="stroke-width: 0.69px; stroke-opacity: 1; stroke: rgb(254, 254, 255);"></path><path class="link" marker-end="" d="M676.5,400, 856.5,440" style="stroke-width: 0.69px; stroke-opacity: 1; stroke: rgb(255, 243, 243);"></path><path class="link" marker-end="" d="M676.5,400, 856.5,480" style="stroke-width: 0.69px; stroke-opacity: 1; stroke: rgb(85, 117, 255);"></path><path class="link" marker-end="" d="M676.5,400, 856.5,520" style="stroke-width: 0.69px; stroke-opacity: 1; stroke: rgb(255, 99, 99);"></path><path class="link" marker-end="" d="M676.5,400, 856.5,560" style="stroke-width: 0.69px; stroke-opacity: 1; stroke: rgb(87, 119, 255);"></path><path class="link" marker-end="" d="M676.5,400, 856.5,600" style="stroke-width: 0.69px; stroke-opacity: 1; stroke: rgb(118, 143, 255);"></path><path class="link" marker-end="" d="M676.5,440, 856.5,240" style="stroke-width: 0.69px; stroke-opacity: 1; stroke: rgb(17, 62, 255);"></path><path class="link" marker-end="" d="M676.5,440, 856.5,280" style="stroke-width: 0.69px; stroke-opacity: 1; stroke: rgb(253, 254, 255);"></path><path class="link" marker-end="" d="M676.5,440, 856.5,320" style="stroke-width: 0.69px; stroke-opacity: 1; stroke: rgb(152, 171, 255);"></path><path class="link" marker-end="" d="M676.5,440, 856.5,360" style="stroke-width: 0.69px; stroke-opacity: 1; stroke: rgb(245, 247, 255);"></path><path class="link" marker-end="" d="M676.5,440, 856.5,400" style="stroke-width: 0.69px; stroke-opacity: 1; stroke: rgb(255, 84, 84);"></path><path class="link" marker-end="" d="M676.5,440, 856.5,440" style="stroke-width: 0.69px; stroke-opacity: 1; stroke: rgb(24, 67, 255);"></path><path class="link" marker-end="" d="M676.5,440, 856.5,480" style="stroke-width: 0.69px; stroke-opacity: 1; stroke: rgb(255, 86, 86);"></path><path class="link" marker-end="" d="M676.5,440, 856.5,520" style="stroke-width: 0.69px; stroke-opacity: 1; stroke: rgb(175, 190, 255);"></path><path class="link" marker-end="" d="M676.5,440, 856.5,560" style="stroke-width: 0.69px; stroke-opacity: 1; stroke: rgb(194, 205, 255);"></path><path class="link" marker-end="" d="M676.5,440, 856.5,600" style="stroke-width: 0.69px; stroke-opacity: 1; stroke: rgb(255, 48, 48);"></path><path class="link" marker-end="" d="M676.5,480, 856.5,240" style="stroke-width: 0.69px; stroke-opacity: 1; stroke: rgb(255, 93, 93);"></path><path class="link" marker-end="" d="M676.5,480, 856.5,280" style="stroke-width: 0.69px; stroke-opacity: 1; stroke: rgb(101, 130, 255);"></path><path class="link" marker-end="" d="M676.5,480, 856.5,320" style="stroke-width: 0.69px; stroke-opacity: 1; stroke: rgb(117, 143, 255);"></path><path class="link" marker-end="" d="M676.5,480, 856.5,360" style="stroke-width: 0.69px; stroke-opacity: 1; stroke: rgb(83, 115, 255);"></path><path class="link" marker-end="" d="M676.5,480, 856.5,400" style="stroke-width: 0.69px; stroke-opacity: 1; stroke: rgb(65, 100, 255);"></path><path class="link" marker-end="" d="M676.5,480, 856.5,440" style="stroke-width: 0.69px; stroke-opacity: 1; stroke: rgb(255, 190, 190);"></path><path class="link" marker-end="" d="M676.5,480, 856.5,480" style="stroke-width: 0.69px; stroke-opacity: 1; stroke: rgb(239, 242, 255);"></path><path class="link" marker-end="" d="M676.5,480, 856.5,520" style="stroke-width: 0.69px; stroke-opacity: 1; stroke: rgb(255, 50, 50);"></path><path class="link" marker-end="" d="M676.5,480, 856.5,560" style="stroke-width: 0.69px; stroke-opacity: 1; stroke: rgb(255, 48, 48);"></path><path class="link" marker-end="" d="M676.5,480, 856.5,600" style="stroke-width: 0.69px; stroke-opacity: 1; stroke: rgb(209, 218, 255);"></path><path class="link" marker-end="" d="M676.5,520, 856.5,240" style="stroke-width: 0.69px; stroke-opacity: 1; stroke: rgb(255, 68, 68);"></path><path class="link" marker-end="" d="M676.5,520, 856.5,280" style="stroke-width: 0.69px; stroke-opacity: 1; stroke: rgb(255, 209, 209);"></path><path class="link" marker-end="" d="M676.5,520, 856.5,320" style="stroke-width: 0.69px; stroke-opacity: 1; stroke: rgb(180, 194, 255);"></path><path class="link" marker-end="" d="M676.5,520, 856.5,360" style="stroke-width: 0.69px; stroke-opacity: 1; stroke: rgb(255, 112, 112);"></path><path class="link" marker-end="" d="M676.5,520, 856.5,400" style="stroke-width: 0.69px; stroke-opacity: 1; stroke: rgb(28, 71, 255);"></path><path class="link" marker-end="" d="M676.5,520, 856.5,440" style="stroke-width: 0.69px; stroke-opacity: 1; stroke: rgb(255, 7, 7);"></path><path class="link" marker-end="" d="M676.5,520, 856.5,480" style="stroke-width: 0.69px; stroke-opacity: 1; stroke: rgb(7, 53, 255);"></path><path class="link" marker-end="" d="M676.5,520, 856.5,520" style="stroke-width: 0.69px; stroke-opacity: 1; stroke: rgb(164, 181, 255);"></path><path class="link" marker-end="" d="M676.5,520, 856.5,560" style="stroke-width: 0.69px; stroke-opacity: 1; stroke: rgb(255, 157, 157);"></path><path class="link" marker-end="" d="M676.5,520, 856.5,600" style="stroke-width: 0.69px; stroke-opacity: 1; stroke: rgb(255, 186, 186);"></path><circle r="10" class="node" id="0_0" cx="496.5" cy="360" style="fill: rgb(255, 255, 255); stroke: rgb(51, 51, 51);"></circle><circle r="10" class="node" id="0_1" cx="496.5" cy="400" style="fill: rgb(255, 255, 255); stroke: rgb(51, 51, 51);"></circle><circle r="10" class="node" id="1_0" cx="676.5" cy="240" style="fill: rgb(255, 255, 255); stroke: rgb(51, 51, 51);"></circle><circle r="10" class="node" id="1_1" cx="676.5" cy="280" style="fill: rgb(255, 255, 255); stroke: rgb(51, 51, 51);"></circle><circle r="10" class="node" id="1_2" cx="676.5" cy="320" style="fill: rgb(255, 255, 255); stroke: rgb(51, 51, 51);"></circle><circle r="10" class="node" id="1_3" cx="676.5" cy="360" style="fill: rgb(255, 255, 255); stroke: rgb(51, 51, 51);"></circle><circle r="10" class="node" id="1_4" cx="676.5" cy="400" style="fill: rgb(255, 255, 255); stroke: rgb(51, 51, 51);"></circle><circle r="10" class="node" id="1_5" cx="676.5" cy="440" style="fill: rgb(255, 255, 255); stroke: rgb(51, 51, 51);"></circle><circle r="10" class="node" id="1_6" cx="676.5" cy="480" style="fill: rgb(255, 255, 255); stroke: rgb(51, 51, 51);"></circle><circle r="10" class="node" id="1_7" cx="676.5" cy="520" style="fill: rgb(255, 255, 255); stroke: rgb(51, 51, 51);"></circle><text class="text" dy=".35em" x="461.5" y="640" style="font-size: 12px;">Input Layer ∈ ℝ²</text><text class="text" dy=".35em" x="641.5" y="640" style="font-size: 12px;">Hidden Layer ∈ ℝ⁸</text><circle r="10" class="node" id="2_0" cx="856.5" cy="160" style="fill: rgb(255, 255, 255); stroke: rgb(51, 51, 51);"></circle><circle r="10" class="node" id="2_1" cx="856.5" cy="200" style="fill: rgb(255, 255, 255); stroke: rgb(51, 51, 51);"></circle><text class="text" dy=".35em" x="821.5" y="640" style="font-size: 12px;">Output Layer ∈ ℝ¹²</text><circle r="10" class="node" id="2_2" cx="856.5" cy="240" style="fill: rgb(255, 255, 255); stroke: rgb(51, 51, 51);"></circle><circle r="10" class="node" id="2_3" cx="856.5" cy="280" style="fill: rgb(255, 255, 255); stroke: rgb(51, 51, 51);"></circle><circle r="10" class="node" id="2_4" cx="856.5" cy="320" style="fill: rgb(255, 255, 255); stroke: rgb(51, 51, 51);"></circle><circle r="10" class="node" id="2_5" cx="856.5" cy="360" style="fill: rgb(255, 255, 255); stroke: rgb(51, 51, 51);"></circle><circle r="10" class="node" id="2_6" cx="856.5" cy="400" style="fill: rgb(255, 255, 255); stroke: rgb(51, 51, 51);"></circle><circle r="10" class="node" id="2_7" cx="856.5" cy="440" style="fill: rgb(255, 255, 255); stroke: rgb(51, 51, 51);"></circle><circle r="10" class="node" id="2_8" cx="856.5" cy="480" style="fill: rgb(255, 255, 255); stroke: rgb(51, 51, 51);"></circle><circle r="10" class="node" id="2_9" cx="856.5" cy="520" style="fill: rgb(255, 255, 255); stroke: rgb(51, 51, 51);"></circle><circle r="10" class="node" id="2_10" cx="856.5" cy="560" style="fill: rgb(255, 255, 255); stroke: rgb(51, 51, 51);"></circle><circle r="10" class="node" id="2_11" cx="856.5" cy="600" style="fill: rgb(255, 255, 255); stroke: rgb(51, 51, 51);"></circle></g><defs><marker id="arrow" viewBox="0 -5 10 10" markerWidth="7" markerHeight="7" orient="auto" refX="40"><path d="M0,-5L10,0L0,5" style="stroke: rgb(80, 80, 80); fill: none;"></path></marker></defs></svg>